<?xml version="1.0"?>
<svg xmlns:rdf="http://www.w3.org/1999/02/22-rdf-syntax-ns#" xmlns="http://www.w3.org/2000/svg" xmlns:cc="http://web.resource.org/cc/" xmlns:dc="http://purl.org/dc/elements/1.1/" xmlns:svg="http://www.w3.org/2000/svg" id="svg2" viewBox="0 0 300 330" version="1.0">
  <path id="path2161" d="m87.372 312.15c-0.49-0.49-0.892-2.03-0.892-3.42 0-2.35-0.215-2.38-2.973-0.45-1.636 1.15-4.029 2.09-5.319 2.09-1.93 0-2.193-0.77-1.484-4.35 0.786-3.97 0.663-4.19-1.404-2.49-1.245 1.03-2.622 1.51-3.059 1.07-0.436-0.44-0.809-10.31-0.829-21.93-0.035-21.38 1.095-28.76 6.253-40.84 1.169-2.73 2.125-6.47 2.125-8.31 0-8.63 5.343-17.27 18.506-29.91 10.374-9.97 12.534-12.68 10.934-13.7-1.71-1.08-1.66-1.27 0.33-1.29 3.59-0.03 2.78-2.59-1.31-4.15-4.16-1.58-19.781 0.59-22.909 3.19-1.186 0.98-9.906 1.7-24.11 1.98-24.475 0.49-32.584 2.31-44.173 9.96-3.461 2.29-6.751 3.53-8.028 3.03-3.2712-1.26 5.805-9.04 13.987-11.98 3.628-1.31 8.494-3.2 10.813-4.22 2.319-1.01 5.63-1.86 7.359-1.89 1.729-0.02 5.551-1.82 8.495-4 8.44-6.26 13.403-8.13 19.058-7.18 16.913 2.82 21.826 1.95 32.038-5.66 2.34-1.75 4.68-3.18 5.2-3.18s4.95-3.24 9.85-7.2c15.26-12.33 21.5-29.43 21.5-58.945 0-17.233 3.77-30.196 8.78-30.196 1.29 0 0.9 1.92-1.43 7.024-2.28 5.027-3.41 10.45-3.95 19.068-1.57 25.289-2.42 32.209-4.88 39.909-3.05 9.53-7.13 16.44-12.4 20.97-7.36 6.34-25.607 19.02-31.041 21.59-5.247 2.47-15.334 2.9-17.492 0.75-1.675-1.68-8.147-0.97-9.845 1.08-0.917 1.1-1.218 2-0.669 2 0.548 0 0.209 0.95-0.754 2.11-1.45 1.75-1.424 2.31 0.146 3.29 2.724 1.68 23.353-0.6 26.211-2.91 0.835-0.67 5.392-1.58 10.124-2.02 7.8-0.73 9.15-0.47 14.36 2.82 11.69 7.38 23.38 10.98 45.58 14.04l7.36 1.01-8.03 0.1c-12.64 0.16-23.63-1.92-33.21-6.28-8.71-3.97-10.45-3.58-15.91 3.57-4.93 6.46-6.43 7.91-17.136 16.63-6.534 5.32-9.823 12.83-11.284 25.75-0.41 3.63-1.63 7.57-2.712 8.77-1.086 1.2-2.914 8.55-4.083 16.41-2.079 14-2.069 14.29 0.627 16.98 2.786 2.79 11.724 5.5 15.87 4.81 2.327-0.39 10.788 5.1 12.718 8.25 1.36 2.22 3.61 2.27 3.61 0.07 0-0.92 2.26-3.83 5.02-6.46 2.76-2.64 6.52-7.76 8.36-11.38 1.84-3.61 4.01-7.01 4.82-7.54 0.82-0.52 3.53-4.96 6.02-9.86 2.5-4.89 5.3-9.19 6.22-9.55s1.67-1.58 1.67-2.72c0-1.15 5.3-7.29 11.78-13.66 11.26-11.06 27.6-32.48 26-34.07-0.42-0.42-2.46-0.76-4.55-0.76-7.06 0-3.84-2.29 4.44-3.16 4.52-0.47 8.89-1.37 9.7-2.01s2.37-1.18 3.48-1.21c1.1-0.04 7.73-0.7 14.72-1.48s14.91-1.07 17.6-0.65c4 0.64 5.15 0.29 6.33-1.9 2.07-3.88-0.69-5.63-10.08-6.37-13.48-1.07-19.21-2.07-19.21-3.37 0-0.69 2.79-1.26 6.19-1.26 5.35 0 5.96-0.27 4.52-2.01-0.92-1.1-3.29-2-5.28-2-2.1 0-5.45-1.65-8.04-3.96-2.86-2.55-6.86-4.42-11.28-5.24-3.76-0.71-14.77-2.8-24.45-4.65s-18.85-3.04-20.38-2.64c-3.18 0.83-10.25-0.62-9.02-1.85 1.46-1.46 18.7-0.34 27.25 1.77 4.58 1.13 12.71 2.54 18.06 3.13s11.71 1.72 14.14 2.5c3.77 1.21 4.81 1.04 7.01-1.16s2.48-3.9 1.89-11.63c-1.4-18.39-0.63-35.04 1.91-41.73 2.19-5.78 2.24-6.88 0.48-11.295-1.75-4.377-1.72-5.385 0.28-9.597 1.23-2.588 2.1-5.744 1.93-7.014-0.17-1.269 0.42-4.881 1.32-8.026 0.89-3.144 1.3-6.241 0.9-6.882-0.39-0.641 0.2-3.761 1.32-6.934 1.12-3.174 1.76-6.474 1.43-7.336-0.33-0.861 0.26-3.214 1.3-5.23 2.56-4.926 2.55-4.939-2.62-3.968-3.73 0.698-5.55 0.112-10.24-3.285-3.14-2.273-6.7-4.134-7.91-4.134-1.22 0-2.82-0.611-3.57-1.358-1.97-1.969-9.07 1.895-18.32 9.966-4.28 3.729-8.91 8.613-10.31 10.854s-3.74 5.458-5.21 7.148c-1.46 1.691-2.88 3.728-3.15 4.526-0.26 0.798-1.23 0.99-2.14 0.426-1.32-0.813-1.31-1.444 0.03-3.055 1.94-2.346 4.47-6.57 6.28-10.518 0.7-1.514 3.28-4.292 5.75-6.175 5.98-4.575 21.15-20.265 27.48-28.425 4.94-6.379 5.11-6.469 5.52-3.01 0.48 4.019 1.81 4.507 4.26 1.558 2.15-2.597 6.69-2.597 6.69 0 0 1.255 1.27 2.007 3.39 2.007 3.82 0 5.69 3.144 3.46 5.826-2.09 2.521-0.45 3.583 3.32 2.15 2.77-1.052 3.21-0.826 3.21 1.652 0 1.58-0.99 3.961-2.19 5.291-1.92 2.12-1.94 2.515-0.17 3.193 1.77 0.679 1.7 1.951-0.51 10.398-3.26 12.392-5.46 24.256-5.78 31.123-0.14 2.993-0.72 6.192-1.29 7.109-0.56 0.916-1.01 6.254-0.99 11.862 0.03 5.603-0.7 12.343-1.6 14.973-1.69 4.89-1.84 36.34-0.21 41.49 0.51 1.6-0.37 4.77-2.24 8.07-3.58 6.31-3.45 6.48 8.09 10.08 9.3 2.9 21.17 8.24 22.27 10.01 0.45 0.73 4.24 2.27 8.44 3.44 4.19 1.16 9.76 2.92 12.36 3.91 2.61 0.98 8.33 1.72 12.71 1.63 9.4-0.17 24.94 3.04 24.28 5.02-0.26 0.77-1.32 1.43-2.36 1.47-1.05 0.05-2.8 0.48-3.91 0.97-3.92 1.72-19.48 3.03-24.75 2.08-29.55-5.29-31.97-5.52-50.68-4.71-20.73 0.89-25.05 2.17-29.99 8.85-1.63 2.21-2.96 4.4-2.96 4.87 0 2.41-18.46 24.05-24.74 29.01-3.97 3.13-7.26 6.18-7.3 6.76-0.04 0.59-3.08 6.07-6.76 12.19-3.68 6.11-6.69 11.74-6.69 12.5s-0.91 1.73-2.01 2.16c-1.1 0.42-2.01 1.4-2.01 2.16 0 1.78-10.04 16.55-12.81 18.85-1.15 0.95-2.96 3.42-4.04 5.5-1.07 2.08-2.8 3.78-3.83 3.78-1.04 0-2.08 1.59-2.31 3.54-0.57 4.76-4.739 7.39-6.583 4.15-1.828-3.21-3.175-2.93-4.971 1.01-1.524 3.34-3.027 4.13-4.704 2.45zm167.09-119.44c-0.42-0.69-4.06-1.93-8.08-2.77-4.02-0.83-7.66-2.08-8.09-2.76-1.29-2.11-4.45-1.4-5.91 1.32-1.25 2.34-0.72 2.7 5.64 3.86 9.43 1.72 17.39 1.89 16.44 0.35z"/>
  <metadata>
    <rdf:RDF>
      <cc:Work>
        <dc:format>image/svg+xml</dc:format>
        <dc:type rdf:resource="http://purl.org/dc/dcmitype/StillImage"/>
        <cc:license rdf:resource="http://creativecommons.org/licenses/publicdomain/"/>
        <dc:publisher>
          <cc:Agent rdf:about="http://openclipart.org/">
            <dc:title>Openclipart</dc:title>
          </cc:Agent>
        </dc:publisher>
        <dc:title>Wood Ibis 2</dc:title>
        <dc:date>2006-12-20T12:13:31</dc:date>
        <dc:description>Flying wood ibis</dc:description>
        <dc:source>http://openclipart.org/detail/2187/wood-ibis-2-by-molumen</dc:source>
        <dc:creator>
          <cc:Agent>
            <dc:title>molumen</dc:title>
          </cc:Agent>
        </dc:creator>
        <dc:subject>
          <rdf:Bag>
            <rdf:li>animal</rdf:li>
            <rdf:li>beak</rdf:li>
            <rdf:li>bird</rdf:li>
            <rdf:li>clip art</rdf:li>
            <rdf:li>clipart</rdf:li>
            <rdf:li>colouring book</rdf:li>
            <rdf:li>fly</rdf:li>
            <rdf:li>ibis</rdf:li>
            <rdf:li>image</rdf:li>
            <rdf:li>media</rdf:li>
            <rdf:li>png</rdf:li>
            <rdf:li>public domain</rdf:li>
            <rdf:li>remix</rdf:li>
            <rdf:li>svg</rdf:li>
            <rdf:li>wing</rdf:li>
            <rdf:li>wood</rdf:li>
          </rdf:Bag>
        </dc:subject>
      </cc:Work>
      <cc:License rdf:about="http://creativecommons.org/licenses/publicdomain/">
        <cc:permits rdf:resource="http://creativecommons.org/ns#Reproduction"/>
        <cc:permits rdf:resource="http://creativecommons.org/ns#Distribution"/>
        <cc:permits rdf:resource="http://creativecommons.org/ns#DerivativeWorks"/>
      </cc:License>
    </rdf:RDF>
  </metadata>
</svg>
